<?xml version="1.0" encoding="iso-8859-1"?>
<!-- Generator: Adobe Illustrator 19.0.0, SVG Export Plug-In . SVG Version: 6.00 Build 0)  -->
<svg version="1.1" id="Capa_1" xmlns="http://www.w3.org/2000/svg" xmlns:xlink="http://www.w3.org/1999/xlink" x="0px" y="0px"
	 viewBox="0 0 512 512" style="enable-background:new 0 0 512 512;" xml:space="preserve">
<g>
	<g>
		<rect x="190.67" y="206.73" width="130.67" height="305.27"/>
	</g>
</g>
<g>
	<g>
		<path d="M461.546,264.074c11.316-11.426,18.32-27.131,18.32-44.445c0-34.849-28.352-63.2-63.199-63.2
			c-34.85,0-63.2,28.352-63.2,63.2c0,17.314,7.003,33.02,18.319,44.445c-7.465,4.001-14.338,8.968-20.453,14.73v54.357h159.473
			C506.054,303.232,487.335,277.894,461.546,264.074z"/>
	</g>
</g>
<g>
	<g>
		<path d="M351.333,363.162V512h145.666c8.285,0,15-6.715,15-15V363.162H351.333z"/>
	</g>
</g>
<g>
	<g>
		<path d="M0.001,399.563V497c0,8.285,6.716,15,15,15h145.667V399.563H0.001z"/>
	</g>
</g>
<g>
	<g>
		<path d="M140.214,300.475c11.316-11.426,18.32-27.132,18.32-44.447c0-34.849-28.352-63.2-63.2-63.2
			c-34.848,0-63.199,28.352-63.199,63.2c0,17.315,7.003,33.021,18.319,44.446c-25.788,13.82-44.507,39.157-49.26,69.088h159.474
			v-54.356C154.553,309.443,147.68,304.476,140.214,300.475z"/>
	</g>
</g>
<g>
	<g>
		<path d="M300.88,107.646C312.196,96.22,319.2,80.514,319.2,63.2C319.2,28.351,290.848,0,256,0s-63.2,28.352-63.2,63.2
			c0,17.314,7.003,33.021,18.32,44.446c-25.787,13.819-44.508,39.157-49.26,69.087h188.28
			C345.388,146.804,326.668,121.466,300.88,107.646z"/>
	</g>
</g>
<g>
</g>
<g>
</g>
<g>
</g>
<g>
</g>
<g>
</g>
<g>
</g>
<g>
</g>
<g>
</g>
<g>
</g>
<g>
</g>
<g>
</g>
<g>
</g>
<g>
</g>
<g>
</g>
<g>
</g>
</svg>
